<svg width="36" height="36" viewBox="0 0 36 36" fill="none" xmlns="http://www.w3.org/2000/svg">
<path fill-rule="evenodd" clip-rule="evenodd" d="M36 18C36 27.9411 27.9411 36 18 36C8.05887 36 0 27.9411 0 18C0 8.05887 8.05887 0 18 0C27.9411 0 36 8.05887 36 18ZM21.0592 10.0273C21.4928 10.0294 23.7905 10.1098 26.2491 11.9069C26.2491 11.9069 28.9993 16.6059 29 22.379C28.9836 22.359 28.9174 22.4274 28.7955 22.5533C28.2426 23.1244 26.5428 24.8803 23.136 24.9536C23.136 24.9536 22.4319 24.1572 21.9305 23.4621C24.3625 22.7643 25.2723 21.3678 25.2723 21.3678C24.6953 21.7314 24.1549 21.9879 23.6765 22.2149C23.4933 22.3018 23.3192 22.3844 23.1556 22.4671C22.2677 22.8574 21.3778 23.0546 20.4898 23.2513L20.4285 23.2649C16.4105 23.9167 14.0384 22.941 11.8831 22.0544C11.7308 21.9918 11.5797 21.9296 11.4291 21.8685L10.6487 21.472C10.6487 21.472 11.5571 22.8685 13.8919 23.5663C13.2786 24.2663 12.6717 25.0613 12.6717 25.0613C8.51529 24.9627 7 22.3671 7 22.3671C7 16.5849 9.73409 11.895 9.73409 11.895C12.4682 9.90494 15.003 10.0007 15.003 10.0007L15.2072 10.2021C11.8612 11 10.3438 12.495 10.3438 12.495C10.3438 12.495 10.7501 12.2964 11.4585 11.9936C15.9645 10.2217 20.8858 10.3497 25.4422 12.5929C25.4422 12.5929 23.922 11.1951 20.7816 10.3L21.0592 10.0273ZM12.5724 18.5855C12.5724 19.6805 13.436 20.5756 14.4967 20.5756C15.5575 20.5756 16.4211 19.6805 16.4211 18.5771C16.4211 17.4807 15.5638 16.5856 14.503 16.5856L14.4967 16.5898C13.436 16.5898 12.5724 17.4814 12.5724 18.5855ZM19.4614 18.5855C19.4614 19.6805 20.325 20.5756 21.3858 20.5756C22.4466 20.5756 23.3102 19.6805 23.3102 18.5771C23.3102 17.4807 22.4508 16.5856 21.3858 16.5856V16.5898C20.3299 16.5898 19.4642 17.4814 19.4614 18.5855Z" fill="#EEDDA1"/>
</svg>
