<svg width="36" height="36" viewBox="0 0 36 36" fill="none" xmlns="http://www.w3.org/2000/svg">
<path fill-rule="evenodd" clip-rule="evenodd" d="M36 18C36 27.9411 27.9411 36 18 36C8.05887 36 0 27.9411 0 18C0 8.05887 8.05887 0 18 0C27.9411 0 36 8.05887 36 18ZM25.5915 10.9185L8.23649 17.61C7.04699 18.075 7.06799 18.7335 8.03249 19.0395L12.4755 20.4255L22.782 13.9365C23.2605 13.6185 23.7045 13.7985 23.3415 14.118L15.0015 21.6525L14.682 26.232C15.147 26.232 15.3495 26.0295 15.5895 25.7895L17.76 23.6985L22.26 27.015C23.0805 27.48 23.667 27.24 23.886 26.253L26.841 12.3315L26.8395 12.333C27.1005 11.115 26.397 10.6275 25.5915 10.9185Z" fill="#EEDDA1"/>
</svg>
