<svg width="100" height="100" viewBox="0 0 100 100" fill="none" xmlns="http://www.w3.org/2000/svg">
<g clip-path="url(#clip0)">
<path d="M96.7578 15.3834C94.1155 11.7486 90.2323 9.38767 85.8235 8.73552C79.9182 7.86189 73.9958 10.3316 70.3337 14.9951C64.8364 12.8132 58.0849 11.7361 49.9999 11.7361C41.915 11.7361 35.1634 12.8132 29.666 14.9953C26.0041 10.3318 20.0818 7.86111 14.1762 8.73571C9.76737 9.38767 5.88437 11.7486 3.24219 15.3834C0.613485 18.9992 -0.471084 23.4462 0.18829 27.9046C1.11973 34.2027 5.35781 39.3124 11.0971 41.387C10.49 45.8727 10.3461 50.5454 10.3461 55.1557C10.3461 66.5366 14.1863 75.9016 21.4521 82.2389C28.3525 88.2574 38.2242 91.4387 50.0001 91.4387C61.7761 91.4387 71.6475 88.2576 78.5481 82.2389C85.8137 75.9018 89.6541 66.5368 89.6541 55.1557C89.6541 50.545 89.51 45.8727 88.9032 41.387C94.6426 39.3124 98.8807 34.2025 99.8119 27.9046C100.471 23.4462 99.3863 18.9992 96.7578 15.3834ZM6.24472 27.0087C5.82129 24.1451 6.51347 21.2949 8.19433 18.983C9.86112 16.6898 12.3041 15.2013 15.0721 14.792C18.3984 14.3004 21.7382 15.5039 24.0675 17.8802C21.1172 19.8181 18.6744 22.2179 16.7238 25.0925C14.6498 28.149 13.2389 31.5909 12.2826 35.2573C9.09765 33.755 6.79101 30.7023 6.24472 27.0087ZM49.9999 69.6442C49.2261 69.6442 47.5632 68.8041 46.0058 67.2477C44.422 65.6647 43.5933 64.0032 43.5933 63.1799C43.5933 62.4448 43.7193 62.3919 44.1876 62.1948C45.5224 61.6333 48.1443 61.5682 50.0001 61.5682C51.856 61.5682 54.4776 61.6331 55.8126 62.1948C56.281 62.3917 56.4069 62.4448 56.4069 63.1799C56.4069 64.0032 55.5782 65.6645 53.9944 67.2477C52.4368 68.8041 50.7737 69.6442 49.9999 69.6442ZM74.5235 77.6252C69.3384 82.1479 61.9614 84.7528 53.061 85.2338V75.1553C55.4646 74.2278 57.4222 72.4774 58.322 71.5782C59.587 70.3139 62.529 66.9649 62.529 63.1801C62.529 60.0839 60.9868 57.73 58.1866 56.552C56.3202 55.7667 53.9482 55.4464 49.9999 55.4464C46.0517 55.4464 43.6796 55.7667 41.8132 56.552C39.013 57.7301 37.4708 60.0842 37.4708 63.1801C37.4708 66.9649 40.413 70.3139 41.6779 71.5782C42.5777 72.4776 44.5351 74.228 46.9388 75.1553V85.2338C38.0384 84.7528 30.6615 82.1481 25.4763 77.6252C19.499 72.412 16.4681 64.8522 16.4681 55.1559C16.4681 45.4005 17.1129 35.4228 21.7898 28.53C24.0998 25.1257 27.2627 22.6187 31.4593 20.866C36.238 18.8703 42.4759 17.8584 49.9999 17.8584C57.5239 17.8584 63.7618 18.8701 68.5403 20.8658C72.737 22.6183 75.8999 25.1255 78.2098 28.5298C82.8866 35.4224 83.5315 45.4001 83.5315 55.1557C83.5315 64.8518 80.5008 72.4116 74.5235 77.6252ZM93.7551 27.0089C93.2088 30.7023 90.9022 33.755 87.7174 35.2573C86.761 31.5909 85.3498 28.149 83.276 25.0925C81.3254 22.2179 78.8827 19.8181 75.9323 17.8802C78.2618 15.5035 81.6022 14.2998 84.928 14.792C87.6961 15.2013 90.1389 16.6896 91.8057 18.983C93.4864 21.2951 94.1787 24.1453 93.7551 27.0089Z" fill="white"/>
<path d="M39.812 39.155C37.5972 39.155 35.7949 40.9759 35.7949 43.2243C35.7949 45.4724 37.5972 47.295 39.812 47.295C42.0298 47.295 43.832 45.4724 43.832 43.2243C43.832 40.9761 42.03 39.155 39.812 39.155Z" fill="white"/>
<path d="M60.1575 39.1234C57.9212 39.1234 56.1073 40.9595 56.1073 43.2245C56.1073 45.4896 57.9214 47.3257 60.1575 47.3257C62.3911 47.3257 64.2052 45.4896 64.2052 43.2245C64.205 40.9595 62.3909 39.1234 60.1575 39.1234Z" fill="white"/>
</g>
<defs>
<clipPath id="clip0">
<rect width="100" height="100" fill="white"/>
</clipPath>
</defs>
</svg>
