<svg width="100" height="100" viewBox="0 0 100 100" fill="none" xmlns="http://www.w3.org/2000/svg">
<g clip-path="url(#clip0)">
<path d="M94.1258 38.9586H93.9788C97.8779 34.1981 100 28.3005 100 22.0485C100 15.8234 97.8136 9.75767 93.8425 4.97215C93.3671 4.39785 92.5728 4.20865 91.8881 4.50157C91.2053 4.79448 90.7962 5.50323 90.8836 6.24176C91.0074 7.27799 91.067 8.1913 91.067 9.03835C91.067 20.8096 82.2594 30.7849 70.5794 32.2389C70.493 32.2495 70.4123 32.2726 70.3307 32.2956C67.8155 30.0781 64.5137 28.7326 60.9296 28.7326H39.0697C35.4914 28.7326 32.1945 30.0743 29.6802 32.285C29.6303 32.2735 29.5822 32.2572 29.5304 32.2514C17.788 30.8464 8.93143 20.8663 8.93143 9.03739C8.93143 8.19226 8.99193 7.27607 9.11582 6.23983C9.20322 5.50035 8.7941 4.79256 8.11032 4.49965C7.42557 4.20481 6.63231 4.39785 6.15596 4.97023C2.18676 9.75863 0 15.8234 0 22.0485C0 29.6075 3.14905 36.7191 8.68942 41.7888C5.53077 44.2474 3.49382 48.0812 3.49382 52.3846C3.49382 53.3123 4.24483 54.0633 5.17159 54.0633H20.2772C21.8849 54.0633 23.4685 53.7704 24.959 53.2172C25.3874 57.1634 26.3871 61.0807 28.4039 64.6514C31.1217 69.4638 33.0905 73.7153 34.5983 78.0274C34.6492 78.1734 34.7212 78.304 34.8047 78.425C33.9538 79.783 33.4535 81.382 33.4535 83.1001C33.4535 87.4544 36.6217 91.0721 40.7734 91.7933C42.6048 94.3767 46.333 96.0218 50.4635 96.0218C54.6508 96.0218 58.3242 94.3873 60.1517 91.7933C64.3044 91.075 67.4755 87.4553 67.4755 83.1001C67.4755 81.0257 66.7524 79.1193 65.55 77.6096C67.0395 73.4359 68.9612 69.313 71.5955 64.6504C73.4673 61.3352 74.4564 57.7214 74.9337 54.0633H82.3766C89.7801 54.0633 95.8035 48.0399 95.8035 40.6354C95.8045 39.7096 95.0525 38.9586 94.1258 38.9586ZM94.2813 11.8071C95.8227 14.9763 96.6429 18.4826 96.6429 22.0485C96.6429 28.4349 94.119 34.4007 89.5362 38.8492C89.5006 38.8828 89.4757 38.9221 89.444 38.9586H80.6988C78.6523 38.9586 76.6816 39.4206 74.8809 40.2897C74.5467 38.4641 73.8552 36.7652 72.8843 35.2593C84.3857 32.9842 93.0761 23.4074 94.2813 11.8071ZM3.35745 22.0485C3.35745 18.4836 4.17761 14.9782 5.71804 11.8081C6.91946 23.4247 15.605 32.988 27.1141 35.2612C26.3842 36.3935 25.8128 37.6353 25.4315 38.9586H16.9207C15.0874 38.9586 13.3405 39.3293 11.7463 39.9968C6.4143 35.5311 3.35745 29.0083 3.35745 22.0485ZM20.2772 50.7078H6.99053C7.79243 45.9511 11.9403 42.3151 16.9207 42.3151H24.8908C24.7314 44.6863 24.6373 47.165 24.718 49.6725C23.3427 50.3486 21.8263 50.7078 20.2772 50.7078ZM45.4917 91.5148C47.4249 91.2843 49.047 91.1652 50.3195 91.1652C51.6438 91.1652 53.3562 91.2882 55.4152 91.5263C54.0649 92.2409 52.3142 92.6663 50.4645 92.6663C48.5995 92.6663 46.8449 92.238 45.4917 91.5148ZM59.347 88.529C59.1482 88.5079 58.9513 88.5252 58.7611 88.5742C58.7554 88.5742 58.7506 88.5751 58.7458 88.5751L58.5873 88.554C55.1281 88.0594 52.3449 87.8088 50.3195 87.8088C48.3325 87.8088 45.6406 88.0594 42.3187 88.5559L42.1794 88.5751C39.2099 88.5185 36.8109 86.0839 36.8109 83.101C36.8109 80.1162 39.209 77.6826 42.1784 77.625L42.311 77.6452C45.5916 78.1417 48.2537 78.3923 50.2225 78.3923C52.2652 78.3923 55.0772 78.1407 58.5806 77.6461L58.7438 77.625C61.7171 77.6788 64.119 80.1152 64.119 83.101C64.119 85.8813 62.035 88.1823 59.347 88.529ZM68.6741 62.9995C66.1867 67.4048 64.3092 71.3557 62.8187 75.3192C62.6424 75.224 62.4713 75.1019 62.2966 74.9699C61.4185 74.3065 60.333 74.0456 59.2365 74.1379C58.3126 74.2215 57.5511 74.3991 57.5511 74.3991C54.4692 74.8198 52.0011 75.0349 50.2235 75.0349C48.7176 75.0349 46.7239 74.8659 44.2951 74.5365C44.2118 74.5252 43.6579 74.4644 42.734 74.3809C41.8082 74.3002 41.0619 74.3619 40.9386 74.3809C39.6267 74.5826 38.4071 75.0647 37.3516 75.7773C35.8352 71.6621 33.9068 67.5699 31.3263 62.9995C27.7671 56.6976 27.7854 48.8696 28.2733 42.0433C28.6699 36.4626 33.4141 32.0891 39.0697 32.0891H60.9296C66.5862 32.0891 71.3295 36.4626 71.7271 42.0433C72.214 48.8696 72.2322 56.6995 68.6741 62.9995ZM82.3776 50.7078H75.2382C75.3592 48.4202 75.3198 46.147 75.2065 43.9478C76.8391 42.8798 78.7224 42.3151 80.6988 42.3151H92.3068C91.5059 47.0718 87.358 50.7078 82.3776 50.7078Z" fill="white"/>
<path d="M66.0186 53.0117C65.0919 53.0117 64.3409 53.7627 64.3409 54.6904C64.3409 55.1591 63.49 55.1591 63.49 54.6904C63.49 53.7627 62.739 53.0117 61.8113 53.0117C60.8845 53.0117 60.1335 53.7627 60.1335 54.6904C60.1335 56.7764 61.8295 58.4733 63.9154 58.4733C66.0013 58.4733 67.6974 56.7764 67.6974 54.6904C67.6974 53.7627 66.9454 53.0117 66.0186 53.0117Z" fill="white"/>
<path d="M39.1648 53.0117C38.2381 53.0117 37.487 53.7627 37.487 54.6904C37.487 55.1591 36.6362 55.1591 36.6362 54.6904C36.6362 53.7627 35.8851 53.0117 34.9574 53.0117C34.0307 53.0117 33.2797 53.7627 33.2797 54.6904C33.2797 56.7764 34.9757 58.4733 37.0616 58.4733C39.1475 58.4733 40.8435 56.7764 40.8435 54.6904C40.8435 53.7627 40.0916 53.0117 39.1648 53.0117Z" fill="white"/>
<path d="M60.558 83.4352C60.558 84.8259 59.4315 85.9533 58.0408 85.9533C56.6502 85.9533 55.5237 84.8259 55.5237 83.4352C55.5237 82.0456 56.6502 80.9181 58.0408 80.9181C59.4315 80.9181 60.558 82.0456 60.558 83.4352Z" fill="white"/>
<path d="M45.4533 83.4352C45.4533 84.8259 44.3258 85.9533 42.9352 85.9533C41.5456 85.9533 40.4181 84.8259 40.4181 83.4352C40.4181 82.0456 41.5456 80.9181 42.9352 80.9181C44.3258 80.9181 45.4533 82.0456 45.4533 83.4352Z" fill="white"/>
</g>
<defs>
<clipPath id="clip0">
<rect width="100" height="100" fill="white"/>
</clipPath>
</defs>
</svg>
